<svg width="134" height="134" viewBox="0 0 134 134" fill="none" xmlns="http://www.w3.org/2000/svg">
<path d="M67.496 125.96C100.355 125.96 126.992 99.3227 126.992 66.464C126.992 33.6053 100.355 6.96802 67.496 6.96802C34.6373 6.96802 8 33.6053 8 66.464C8 99.3227 34.6373 125.96 67.496 125.96Z" fill="white"/>
<path d="M67.4963 11.8456C97.6061 11.8456 122.115 36.3408 122.115 66.464C122.115 96.5872 97.6195 121.082 67.4963 121.082C37.3731 121.082 12.8779 96.5872 12.8779 66.464C12.8779 36.3408 37.3865 11.8456 67.4963 11.8456ZM67.4963 6.96802C34.6395 6.98142 8.01367 33.6072 8.01367 66.464C8.01367 99.3208 34.6529 125.96 67.5097 125.96C100.366 125.96 127.006 99.3208 127.006 66.464C127.006 33.6072 100.353 6.98142 67.4963 6.98142V6.96802Z" fill="#E0E0E0"/>
<path d="M67.4958 96.8015C84.2508 96.8015 97.8334 83.2189 97.8334 66.4639C97.8334 49.7089 84.2508 36.1263 67.4958 36.1263C50.7408 36.1263 37.1582 49.7089 37.1582 66.4639C37.1582 83.2189 50.7408 96.8015 67.4958 96.8015Z" fill="white"/>
<path d="M67.4958 41.0039C81.539 41.0039 92.9558 52.4207 92.9558 66.4639C92.9558 80.5071 81.539 91.9239 67.4958 91.9239C53.4526 91.9239 42.0358 80.5071 42.0358 66.4639C42.0358 52.4207 53.4526 41.0039 67.4958 41.0039ZM67.4958 36.1263C50.7458 36.1263 37.1582 49.7139 37.1582 66.4639C37.1582 83.2139 50.7458 96.8015 67.4958 96.8015C84.2458 96.8015 97.8334 83.2139 97.8334 66.4639C97.8334 49.7139 84.2458 36.1263 67.4958 36.1263Z" fill="#E0E0E0"/>
<path d="M40.2399 61.4658C40.2399 61.4658 22.8199 62.0018 25.3257 79.5692C27.8315 97.15 33.8481 108.326 66.8657 108.326C99.8833 108.326 96.6941 82.7584 87.0997 73.1774C77.5053 63.5964 75.3881 51.8714 60.4739 51.4292C53.9079 51.2282 47.5161 62.0018 40.2399 61.4658Z" fill="white"/>
<path d="M60.3004 54.94H60.3674C69.0908 55.208 72.4944 59.9516 77.2112 66.531C79.382 69.546 81.6198 72.6682 84.608 75.6698C88.7218 79.7836 91.3482 87.9978 88.6012 94.6174C85.8408 101.291 78.3234 104.801 66.853 104.801C34.9342 104.801 30.941 94.135 28.797 79.06C28.194 74.8792 28.8774 71.5694 30.8204 69.2512C33.889 65.5796 39.3428 65.0436 40.2138 64.9766C40.388 64.9766 40.5756 64.9766 40.7498 64.9766C45.547 64.9766 49.5938 61.8142 53.1716 59.0136C55.7444 57.0036 58.3976 54.9132 60.287 54.9132M60.287 51.389C53.9488 51.389 47.758 61.4524 40.7498 61.4524C40.5756 61.4524 40.4014 61.4524 40.2272 61.439C40.2272 61.439 22.8072 61.975 25.313 79.5424C27.8188 97.1232 33.8354 108.299 66.853 108.299C99.8706 108.299 96.6814 82.7316 87.087 73.1506C77.7338 63.7974 75.3754 51.8446 60.4612 51.4024C60.4076 51.4024 60.3406 51.4024 60.287 51.4024V51.389Z" fill="#E0E0E0"/>
<path d="M58.5714 96.9223C51.4292 96.9223 45.627 91.12 45.627 83.9778C45.627 76.8356 51.4292 71.0334 58.5714 71.0334C65.7136 71.0334 71.5158 76.8356 71.5158 83.9778C71.5158 91.12 65.7136 96.9223 58.5714 96.9223ZM58.5714 74.5576C53.3722 74.5576 49.1512 78.792 49.1512 83.9778C49.1512 89.1636 53.3856 93.398 58.5714 93.398C63.7572 93.398 67.9916 89.1636 67.9916 83.9778C67.9916 78.792 63.7572 74.5576 58.5714 74.5576Z" fill="#E0E0E0"/>
<path d="M88.2527 88.507C83.9915 89.914 79.5159 87.971 77.4791 81.807C75.4423 75.643 75.4557 70.4974 72.1325 60.4742C69.3319 51.992 64.7223 43.2552 63.1947 38.6188C61.6671 33.9824 64.0925 29.7614 68.3537 28.3544C72.6149 26.9474 76.6751 30.9138 78.6181 33.5134C81.6867 37.6272 83.9915 44.5683 87.8105 56.1326C90.8657 65.3518 92.2593 72.1456 92.9829 75.8306C93.3581 77.7602 93.4787 79.73 93.2241 81.673C92.7819 85.023 91.3481 87.4752 88.2527 88.4936V88.507Z" fill="white"/>
<path d="M70.1757 30.5118C72.4939 30.5118 75.0533 32.83 76.6613 34.9874C79.5021 38.793 81.7533 45.6136 85.4919 56.9098C88.3595 65.5796 89.7665 72.1322 90.5839 76.2996C90.9323 78.0952 90.9993 79.797 90.7983 81.3648C90.3427 84.822 88.7883 85.76 87.4885 86.1888C86.8587 86.4032 86.2423 86.497 85.6393 86.497C83.0397 86.497 80.9627 84.554 79.7969 81.0298C78.9527 78.457 78.4703 76.0584 77.9209 73.2846C77.1839 69.6264 76.3665 65.4724 74.4637 59.7104C72.8155 54.7122 70.6179 49.781 68.6749 45.426C67.3081 42.3574 66.1289 39.7176 65.5259 37.8684C65.0033 36.2872 65.0837 34.7462 65.7805 33.433C66.4505 32.16 67.6431 31.1818 69.1439 30.686C69.4923 30.5654 69.8407 30.5118 70.2025 30.5118M70.2025 28.073C69.5995 28.073 68.9965 28.1668 68.3801 28.3678C64.1189 29.7748 61.6935 34.0092 63.2211 38.6322C64.7487 43.2552 69.3583 52.0054 72.1589 60.4876C75.4821 70.5108 75.4687 75.643 77.5055 81.8204C79.1269 86.7248 82.2893 88.9626 85.6527 88.9626C86.5237 88.9626 87.3947 88.8152 88.2791 88.5204C91.3611 87.502 92.8083 85.0498 93.2505 81.6998C93.5051 79.7568 93.3845 77.787 93.0093 75.8574C92.2991 72.1858 90.8921 65.392 87.8369 56.1594C84.0045 44.5952 81.7131 37.654 78.6445 33.5402C76.9829 31.3158 73.7669 28.0864 70.2025 28.0864V28.073Z" fill="#E0E0E0"/>
<path d="M69.3446 48.0792C68.8354 48.0792 68.353 47.7576 68.1922 47.2484C67.9778 46.6052 68.3262 45.9218 68.9694 45.7074C72.0112 44.7024 74.6242 43.2552 75.6024 42.009C76.0178 41.4864 76.7816 41.3926 77.3176 41.808C77.8402 42.2234 77.934 42.9872 77.5186 43.5232C76.2322 45.158 73.3244 46.833 69.7466 48.0122C69.6126 48.0524 69.492 48.0792 69.358 48.0792H69.3446Z" fill="#E0E0E0"/>
<path d="M71.8914 55.7842C71.3822 55.7842 70.8998 55.4625 70.739 54.9533C70.5246 54.3101 70.873 53.6268 71.5162 53.4124C74.558 52.4074 77.171 50.9601 78.1492 49.7139C78.5646 49.1913 79.3284 49.0976 79.8644 49.513C80.387 49.9284 80.4808 50.6921 80.0654 51.2281C78.779 52.8629 75.8712 54.538 72.2934 55.7172C72.1594 55.7574 72.0388 55.7842 71.9048 55.7842H71.8914Z" fill="#E0E0E0"/>
<path d="M74.45 63.5027C73.9408 63.5027 73.4584 63.1811 73.2976 62.6719C73.0832 62.0287 73.4316 61.3453 74.0748 61.1309C77.1166 60.1259 79.7162 58.6787 80.7078 57.4325C81.1232 56.9099 81.887 56.8161 82.423 57.2315C82.9456 57.6469 83.0394 58.4107 82.624 58.9467C81.3376 60.5815 78.4298 62.2565 74.852 63.4357C74.7314 63.4759 74.5974 63.5027 74.4634 63.5027H74.45Z" fill="#E0E0E0"/>
<path d="M77.5057 72.7486C76.9965 72.7486 76.5141 72.427 76.3533 71.9178C76.1389 71.2746 76.4873 70.5912 77.1305 70.3768C80.1857 69.3718 82.7853 67.9246 83.7635 66.6784C84.1789 66.1558 84.9427 66.062 85.4787 66.4774C86.0013 66.8928 86.0951 67.6566 85.6797 68.1926C84.3933 69.8274 81.4855 71.5024 77.9077 72.6816C77.7737 72.7218 77.6531 72.7486 77.5191 72.7486H77.5057Z" fill="#E0E0E0"/>
<path d="M101.251 85.2508C96.9895 86.6578 92.5139 84.7148 90.4771 78.5508C88.4403 72.3868 88.4537 67.2412 85.1305 57.2181C82.3299 48.7358 77.7203 39.999 76.1927 35.3626C74.6651 30.7262 77.0905 26.5052 81.3517 25.0982C85.6129 23.6912 89.6731 27.6576 91.6161 30.2572C94.6847 34.371 96.9895 41.3122 100.809 52.8764C103.864 62.0956 105.257 68.8895 105.981 72.5744C106.356 74.5041 106.477 76.4739 106.222 78.4169C105.78 81.7668 104.346 84.2191 101.251 85.2374V85.2508Z" fill="white"/>
<path d="M83.1737 27.2556C85.4919 27.2556 88.0513 29.5738 89.6593 31.7312C92.5001 35.5368 94.7513 42.3574 98.4899 53.6536C101.358 62.3234 102.765 68.876 103.582 73.0434C103.93 74.839 103.997 76.5408 103.796 78.1086C103.341 81.5658 101.786 82.5038 100.487 82.9326C99.8567 83.147 99.2403 83.2408 98.6373 83.2408C96.0377 83.2408 93.9607 81.2978 92.7949 77.7736C91.9507 75.2008 91.4683 72.8022 90.9189 70.0284C90.1819 66.3702 89.3645 62.2162 87.4617 56.4542C85.8135 51.456 83.6159 46.5248 81.6729 42.1698C80.3061 39.1012 79.1269 36.4614 78.5239 34.6122C78.0013 33.031 78.0817 31.49 78.7785 30.1768C79.4485 28.9038 80.6411 27.9256 82.1419 27.4298C82.4903 27.3092 82.8387 27.2556 83.2005 27.2556M83.2005 24.8168C82.5975 24.8168 81.9945 24.9106 81.3781 25.1116C77.1169 26.5186 74.6915 30.753 76.2191 35.376C77.7467 39.999 82.3563 48.7492 85.1569 57.2314C88.4801 67.2546 88.4667 72.3868 90.5035 78.5642C92.1249 83.4686 95.2873 85.7064 98.6507 85.7064C99.5217 85.7064 100.393 85.559 101.277 85.2642C104.359 84.2458 105.806 81.7936 106.249 78.4436C106.503 76.5006 106.383 74.5308 106.007 72.6012C105.297 68.9296 103.89 62.1358 100.835 52.9032C97.0025 41.339 94.7111 34.3978 91.6425 30.284C89.9809 28.0596 86.7649 24.8302 83.2005 24.8302V24.8168Z" fill="#E0E0E0"/>
<path d="M82.3299 44.823C81.8207 44.823 81.3383 44.5014 81.1775 43.9922C80.9631 43.349 81.3115 42.6656 81.9547 42.4512C84.9965 41.4462 87.6095 39.999 88.5877 38.7528C89.0031 38.2302 89.7669 38.1364 90.3029 38.5518C90.8255 38.9672 90.9193 39.731 90.5039 40.267C89.2175 41.9018 86.3097 43.5768 82.7319 44.756C82.5979 44.7962 82.4773 44.823 82.3433 44.823H82.3299Z" fill="#E0E0E0"/>
<path d="M84.8895 52.5414C84.3803 52.5414 83.8979 52.2198 83.7371 51.7106C83.5227 51.0674 83.8711 50.384 84.5143 50.1696C87.5561 49.1646 90.1691 47.7174 91.1473 46.4712C91.5627 45.9486 92.3265 45.8548 92.8625 46.2702C93.3851 46.6856 93.4789 47.4494 93.0635 47.9854C91.7771 49.6202 88.8693 51.2952 85.2915 52.4744C85.1575 52.5146 85.0369 52.5414 84.9029 52.5414H84.8895Z" fill="#E0E0E0"/>
<path d="M87.4354 60.2464C86.9262 60.2464 86.4438 59.9248 86.283 59.4156C86.0686 58.7724 86.417 58.089 87.0602 57.8746C90.102 56.8696 92.7016 55.4224 93.6932 54.1762C94.1086 53.6536 94.8724 53.5598 95.4084 53.9752C95.931 54.3906 96.0248 55.1544 95.6094 55.6904C94.323 57.3252 91.4152 59.0002 87.8374 60.1794C87.7168 60.2196 87.5828 60.2464 87.4488 60.2464H87.4354Z" fill="#E0E0E0"/>
<path d="M90.5037 69.5058C89.9945 69.5058 89.5121 69.1842 89.3513 68.675C89.1369 68.0318 89.4853 67.3484 90.1285 67.134C93.1837 66.129 95.7833 64.6818 96.7615 63.4356C97.1769 62.913 97.9407 62.8192 98.4767 63.2346C98.9993 63.65 99.0931 64.4138 98.6777 64.9498C97.3913 66.5846 94.4835 68.2596 90.9057 69.4388C90.7717 69.479 90.6511 69.5058 90.5171 69.5058H90.5037Z" fill="#E0E0E0"/>
<path opacity="0.3" d="M58.9602 95.14C64.8807 95.14 69.6802 90.3404 69.6802 84.42C69.6802 78.4995 64.8807 73.7 58.9602 73.7C53.0397 73.7 48.2402 78.4995 48.2402 84.42C48.2402 90.3404 53.0397 95.14 58.9602 95.14Z" fill="#E0E0E0"/>
<path d="M65.1639 81.8874C64.7351 81.8874 64.3465 81.6194 64.2125 81.1906C63.7569 79.7702 62.6715 78.6044 61.2779 78.055C60.7553 77.854 60.5141 77.2644 60.7151 76.7552C60.9161 76.246 61.5057 75.9914 62.0149 76.1924C63.9847 76.9696 65.4855 78.5642 66.1287 80.5876C66.3029 81.1102 66.0081 81.6864 65.4721 81.8472C65.3649 81.874 65.2711 81.9008 65.1639 81.9008V81.8874Z" fill="#E0E0E0"/>
<path d="M65.6603 85.425C66.2153 85.425 66.6653 84.9751 66.6653 84.42C66.6653 83.865 66.2153 83.415 65.6603 83.415C65.1052 83.415 64.6553 83.865 64.6553 84.42C64.6553 84.9751 65.1052 85.425 65.6603 85.425Z" fill="#E0E0E0"/>
</svg>
