<svg width="41" height="38" viewBox="0 0 41 38" fill="none" xmlns="http://www.w3.org/2000/svg">
<path fill-rule="evenodd" clip-rule="evenodd" d="M12.7955 0.965825C13.1421 0.367758 13.7782 0 14.466 0H26.534C27.2218 0 27.8579 0.367758 28.2045 0.965825L30.8938 5.60656H34.4245C38.0561 5.60656 41 8.56992 41 12.2254V31.3812C41 35.0366 38.0561 38 34.4245 38H6.57547C2.94394 38 0 35.0366 0 31.3811V12.2254C0 8.56991 2.94394 5.60656 6.57547 5.60656H10.1062L12.7955 0.965825ZM15.5768 3.89344L12.8875 8.53418C12.5409 9.13224 11.9048 9.5 11.217 9.5H6.57547C5.08013 9.5 3.86793 10.7202 3.86793 12.2254V31.3811C3.86793 32.8863 5.08014 34.1066 6.57547 34.1066H34.4245C35.9199 34.1066 37.1321 32.8864 37.1321 31.3812V12.2254C37.1321 10.7202 35.9199 9.5 34.4245 9.5H29.783C29.0952 9.5 28.4591 9.13224 28.1125 8.53418L25.4232 3.89344H15.5768ZM20.5 15.5738C17.7229 15.5738 15.4717 17.8399 15.4717 20.6352C15.4717 23.4306 17.7229 25.6967 20.5 25.6967C23.2771 25.6967 25.5283 23.4306 25.5283 20.6352C25.5283 17.8399 23.2771 15.5738 20.5 15.5738ZM11.6038 20.6352C11.6038 15.6896 15.5868 11.6803 20.5 11.6803C25.4132 11.6803 29.3962 15.6896 29.3962 20.6352C29.3962 25.5809 25.4132 29.5902 20.5 29.5902C15.5868 29.5902 11.6038 25.5809 11.6038 20.6352Z" fill="#BDBDBD"/>
</svg>
