<svg width="42" height="35" viewBox="0 0 42 35" fill="none" xmlns="http://www.w3.org/2000/svg">
<path d="M38.1111 5.38462H31.5L29.925 1.01923C29.8162 0.72052 29.6168 0.462316 29.354 0.279892C29.0913 0.0974682 28.778 -0.000280105 28.4569 6.02898e-07H13.5431C12.8868 6.02898e-07 12.2986 0.408654 12.0799 1.01923L10.5 5.38462H3.88889C1.74028 5.38462 0 7.10577 0 9.23077V31.1538C0 33.2788 1.74028 35 3.88889 35H38.1111C40.2597 35 42 33.2788 42 31.1538V9.23077C42 7.10577 40.2597 5.38462 38.1111 5.38462ZM21 27.3077C16.7028 27.3077 13.2222 23.8654 13.2222 19.6154C13.2222 15.3654 16.7028 11.9231 21 11.9231C25.2972 11.9231 28.7778 15.3654 28.7778 19.6154C28.7778 23.8654 25.2972 27.3077 21 27.3077ZM16.3333 19.6154C16.3333 20.8395 16.825 22.0134 17.7002 22.879C18.5753 23.7445 19.7623 24.2308 21 24.2308C22.2377 24.2308 23.4247 23.7445 24.2998 22.879C25.175 22.0134 25.6667 20.8395 25.6667 19.6154C25.6667 18.3913 25.175 17.2174 24.2998 16.3518C23.4247 15.4863 22.2377 15 21 15C19.7623 15 18.5753 15.4863 17.7002 16.3518C16.825 17.2174 16.3333 18.3913 16.3333 19.6154Z" fill="#BDBDBD"/>
</svg>
