<svg width="146" height="146" viewBox="0 0 146 146" fill="none" xmlns="http://www.w3.org/2000/svg">
<path d="M111.895 83.0594H63.8607C62.4591 83.0594 61.3057 81.9206 61.3057 80.5044V36.6022C61.3057 30.952 65.8755 26.3822 71.5257 26.3822H104.215C109.865 26.3822 114.435 30.952 114.435 36.6022V80.5044C114.435 81.906 113.296 83.0594 111.88 83.0594H111.895Z" fill="#E0E0E0"/>
<path d="M58.0208 81.5994C57.4222 81.5994 56.9258 81.1176 56.9258 80.5044V36.6022C56.9258 31.7696 60.8532 27.8422 65.6858 27.8422H98.3752C103.208 27.8422 107.135 31.7696 107.135 36.6022V80.5044C107.135 81.103 106.653 81.5994 106.04 81.5994H58.0062H58.0208Z" fill="white"/>
<path d="M98.3752 29.3169C102.405 29.3169 105.675 32.5873 105.675 36.6169V80.1395H58.3858V36.6169C58.3858 32.5873 61.6562 29.3169 65.6858 29.3169H98.3752ZM98.3752 26.3969H65.6858C60.0356 26.3969 55.4658 30.9667 55.4658 36.6169V80.5191C55.4658 81.9207 56.6046 83.0741 58.0208 83.0741H106.055C107.456 83.0741 108.61 81.9353 108.61 80.5191V36.6169C108.61 30.9667 104.04 26.3969 98.3898 26.3969H98.3752Z" fill="#E0E0E0"/>
<path d="M75.832 39.6682L65.2178 52.0636" stroke="#E0E0E0" stroke-width="2" stroke-miterlimit="10" stroke-linecap="round"/>
<path d="M99.747 58.2686L89.1182 70.664" stroke="#E0E0E0" stroke-width="2" stroke-miterlimit="10" stroke-linecap="round"/>
<path d="M90.3006 37.9016L65.5098 68.0068" stroke="#E0E0E0" stroke-width="2" stroke-miterlimit="10" stroke-linecap="round"/>
<path d="M99.4402 43.2159L74.6494 73.3211" stroke="#E0E0E0" stroke-width="2" stroke-miterlimit="10" stroke-linecap="round"/>
<path d="M85.6144 83.0594H37.5804C36.1788 83.0594 35.0254 81.9206 35.0254 80.5044V36.6022C35.0254 30.952 39.5952 26.3822 45.2454 26.3822H77.9348C83.585 26.3822 88.1548 30.952 88.1548 36.6022V80.5044C88.1548 81.906 87.016 83.0594 85.5998 83.0594H85.6144Z" fill="#E0E0E0"/>
<path d="M31.7405 81.5994C31.1419 81.5994 30.6455 81.1176 30.6455 80.5044V36.6022C30.6455 31.7696 34.5729 27.8422 39.4055 27.8422H72.0949C76.9275 27.8422 80.8549 31.7696 80.8549 36.6022V80.5044C80.8549 81.103 80.3731 81.5994 79.7599 81.5994H31.7405Z" fill="white"/>
<path d="M72.0949 29.3169C76.1245 29.3169 79.3949 32.5873 79.3949 36.6169V80.1395H32.1055V36.6169C32.1055 32.5873 35.3759 29.3169 39.4055 29.3169H72.0949ZM72.0949 26.3969H39.4055C33.7553 26.3969 29.1855 30.9667 29.1855 36.6169V80.5191C29.1855 81.9207 30.3243 83.0741 31.7405 83.0741H79.7745C81.1761 83.0741 82.3295 81.9353 82.3295 80.5191V36.6169C82.3295 30.9667 77.7597 26.3969 72.1095 26.3969H72.0949Z" fill="#E0E0E0"/>
<path d="M49.5527 39.6682L38.9385 52.0636" stroke="#E0E0E0" stroke-width="2" stroke-miterlimit="10" stroke-linecap="round"/>
<path d="M73.4677 58.2686L62.8389 70.664" stroke="#E0E0E0" stroke-width="2" stroke-miterlimit="10" stroke-linecap="round"/>
<path d="M64.0213 37.9016L39.2305 68.0068" stroke="#E0E0E0" stroke-width="2" stroke-miterlimit="10" stroke-linecap="round"/>
<path d="M73.1609 43.2159L48.3701 73.3211" stroke="#E0E0E0" stroke-width="2" stroke-miterlimit="10" stroke-linecap="round"/>
<path d="M33.9012 59.6263H118.143C122.231 59.6263 125.56 62.9551 125.56 67.0431V120.873C125.56 122.655 124.115 124.1 122.333 124.1H29.711C27.9298 124.1 26.4844 122.655 26.4844 120.873V67.0431C26.4844 62.9551 29.8132 59.6263 33.9012 59.6263Z" fill="white" stroke="#E0E0E0" stroke-width="3" stroke-miterlimit="10" stroke-linecap="round"/>
<path d="M88.1689 59.6263H100.623C104.711 59.6263 108.04 62.5025 108.04 66.0357V84.6799" stroke="#E0E0E0" stroke-width="2" stroke-miterlimit="10" stroke-linecap="round"/>
<path d="M96.9297 59.6263H109.383C113.471 59.6263 116.8 62.5025 116.8 66.0357V84.6799" stroke="#E0E0E0" stroke-width="2" stroke-miterlimit="10" stroke-linecap="round"/>
<path d="M23.3455 59.6263H91.3669C95.4549 59.6263 98.7837 62.9551 98.7837 67.0431V120.873C98.7837 122.655 97.3383 124.1 95.5571 124.1H19.1553C17.3741 124.1 15.9287 122.655 15.9287 120.873V67.0431C15.9287 62.9551 19.2575 59.6263 23.3455 59.6263Z" fill="white" stroke="#E0E0E0" stroke-width="3" stroke-miterlimit="10" stroke-linecap="round"/>
<path d="M109.325 90.0674V107.485" stroke="#E0E0E0" stroke-width="1.5" stroke-miterlimit="10" stroke-linecap="round"/>
<path d="M109.5 111.325C111.314 111.325 112.785 109.854 112.785 108.04C112.785 106.226 111.314 104.755 109.5 104.755C107.686 104.755 106.215 106.226 106.215 108.04C106.215 109.854 107.686 111.325 109.5 111.325Z" fill="white"/>
<path d="M109.5 105.85C110.712 105.85 111.69 106.828 111.69 108.04C111.69 109.252 110.712 110.23 109.5 110.23C108.288 110.23 107.31 109.252 107.31 108.04C107.31 106.828 108.288 105.85 109.5 105.85ZM109.5 103.66C107.077 103.66 105.12 105.616 105.12 108.04C105.12 110.464 107.077 112.42 109.5 112.42C111.924 112.42 113.88 110.464 113.88 108.04C113.88 105.616 111.924 103.66 109.5 103.66Z" fill="#E0E0E0"/>
<path d="M118.128 91.7172H116.435C115.83 91.7172 115.34 92.2074 115.34 92.8122C115.34 93.4169 115.83 93.9072 116.435 93.9072H118.128C118.733 93.9072 119.223 93.4169 119.223 92.8122C119.223 92.2074 118.733 91.7172 118.128 91.7172Z" fill="#E0E0E0"/>
<path d="M118.128 97.6886H116.435C115.83 97.6886 115.34 98.1788 115.34 98.7836C115.34 99.3884 115.83 99.8786 116.435 99.8786H118.128C118.733 99.8786 119.223 99.3884 119.223 98.7836C119.223 98.1788 118.733 97.6886 118.128 97.6886Z" fill="#E0E0E0"/>
<path d="M118.128 103.645H116.435C115.83 103.645 115.34 104.136 115.34 104.74C115.34 105.345 115.83 105.835 116.435 105.835H118.128C118.733 105.835 119.223 105.345 119.223 104.74C119.223 104.136 118.733 103.645 118.128 103.645Z" fill="#E0E0E0"/>
</svg>
