<svg width="134" height="134" viewBox="0 0 134 134" fill="none" xmlns="http://www.w3.org/2000/svg">
<path d="M33.2053 113.27L42.9471 70.2026C43.3223 68.541 45.2117 67.737 46.6589 68.6214L67.8175 81.3514C69.2111 82.1956 69.4389 84.1252 68.2731 85.2642L37.3727 115.602C35.6039 117.344 32.6425 115.696 33.1919 113.27H33.2053Z" stroke="#E0E0E0" stroke-width="3" stroke-miterlimit="10"/>
<path d="M93 28C95.2091 28 97 26.2091 97 24C97 21.7909 95.2091 20 93 20C90.7909 20 89 21.7909 89 24C89 26.2091 90.7909 28 93 28Z" stroke="#E0E0E0" stroke-width="2" stroke-miterlimit="10"/>
<path d="M71 72C77.792 65.348 85.8251 62.2298 99 65.0246" stroke="#E0E0E0" stroke-width="2" stroke-miterlimit="10" stroke-linecap="round"/>
<path d="M54.3886 65C58.5614 57.3752 57.9453 44.4352 51 34" stroke="#E0E0E0" stroke-width="2" stroke-miterlimit="10" stroke-linecap="round"/>
<path d="M82 53C82.9446 50.8685 89.0263 47.7007 93 47" stroke="#E0E0E0" stroke-width="2" stroke-miterlimit="10" stroke-linecap="round"/>
<path d="M67 50.8086C68.6214 45.9578 75.0936 36.2428 79.9444 33" stroke="#E0E0E0" stroke-width="2" stroke-miterlimit="10" stroke-linecap="round"/>
<path d="M45.9352 26.9742C47.7261 26.9742 49.178 25.5224 49.178 23.7314C49.178 21.9405 47.7261 20.4886 45.9352 20.4886C44.1442 20.4886 42.6924 21.9405 42.6924 23.7314C42.6924 25.5224 44.1442 26.9742 45.9352 26.9742Z" stroke="#E0E0E0" stroke-width="2" stroke-miterlimit="10"/>
<path d="M109.243 71.4856C111.034 71.4856 112.486 70.0337 112.486 68.2428C112.486 66.4518 111.034 65 109.243 65C107.452 65 106 66.4518 106 68.2428C106 70.0337 107.452 71.4856 109.243 71.4856Z" stroke="#E0E0E0" stroke-width="2" stroke-miterlimit="10"/>
<path d="M103.243 48.4856C105.034 48.4856 106.486 47.0337 106.486 45.2428C106.486 43.4519 105.034 42 103.243 42C101.452 42 100 43.4519 100 45.2428C100 47.0337 101.452 48.4856 103.243 48.4856Z" stroke="#E0E0E0" stroke-width="2" stroke-miterlimit="10"/>
<path d="M65.0284 31.0568C66.7009 31.0568 68.0568 29.7009 68.0568 28.0284C68.0568 26.3559 66.7009 25 65.0284 25C63.3559 25 62 26.3559 62 28.0284C62 29.7009 63.3559 31.0568 65.0284 31.0568Z" stroke="#E0E0E0" stroke-width="2" stroke-miterlimit="10"/>
<path d="M40.4814 79.8372C40.4814 79.8372 46.8196 85.2508 51.523 87.7834C56.2264 90.316 61.841 92.125 61.841 92.125" stroke="#E0E0E0" stroke-width="3" stroke-miterlimit="10"/>
<path d="M36.9434 94.5771C36.9434 94.5771 40.7624 98.9321 43.9382 100.54C47.114 102.148 51.1608 102.751 51.1608 102.751" stroke="#E0E0E0" stroke-width="3" stroke-miterlimit="10"/>
</svg>
