<svg width="131" height="63" viewBox="0 0 131 63" fill="none" xmlns="http://www.w3.org/2000/svg">
<g clip-path="url(#clip0_3664_4292)">
<path d="M117.175 0H115.605C113.636 0 112.039 2.24437 112.039 5.01295V57.9871C112.039 60.7556 113.636 63 115.605 63H117.175C119.145 63 120.741 60.7556 120.741 57.9871V5.01295C120.741 2.24437 119.145 0 117.175 0Z" fill="#E0E0E0"/>
<path d="M127.448 10.0856H125.877C123.908 10.0856 122.312 12.3299 122.312 15.0985V47.9214C122.312 50.69 123.908 52.9343 125.877 52.9343H127.448C129.417 52.9343 131.014 50.69 131.014 47.9214V15.0985C131.014 12.3299 129.417 10.0856 127.448 10.0856Z" fill="#E0E0E0"/>
<path d="M13.8245 63H15.3952C17.3645 63 18.9609 60.7556 18.9609 57.9871L18.9609 5.01295C18.9609 2.24437 17.3645 0 15.3952 0H13.8245C11.8552 0 10.2587 2.24437 10.2587 5.01295L10.2587 57.9871C10.2587 60.7556 11.8552 63 13.8245 63Z" fill="#E0E0E0"/>
<path d="M3.56573 52.9144H5.13637C7.10569 52.9144 8.70215 50.6701 8.70215 47.9015L8.70215 15.0786C8.70215 12.31 7.10569 10.0657 5.13637 10.0657H3.56573C1.5964 10.0657 -5.53131e-05 12.31 -5.53131e-05 15.0786L-5.53131e-05 47.9015C-5.53131e-05 50.6701 1.5964 52.9144 3.56573 52.9144Z" fill="#E0E0E0"/>
<path d="M18.8057 31.5099H112.195" stroke="#E0E0E0" stroke-width="6" stroke-miterlimit="10" stroke-linecap="round"/>
</g>
<defs>
<clipPath id="clip0_3664_4292">
<rect width="131" height="63" fill="white"/>
</clipPath>
</defs>
</svg>
