<svg width="134" height="134" viewBox="0 0 134 134" fill="none" xmlns="http://www.w3.org/2000/svg">
<path d="M112.332 8.04004H21.6679C18.5818 8.04004 16.0801 10.5418 16.0801 13.6278V120.372C16.0801 123.458 18.5818 125.96 21.6679 125.96H112.332C115.418 125.96 117.92 123.458 117.92 120.372V13.6278C117.92 10.5418 115.418 8.04004 112.332 8.04004Z" fill="white"/>
<path d="M112.333 127.97H21.6681C17.4873 127.97 14.0703 124.566 14.0703 120.372V13.6278C14.0703 9.44703 17.4739 6.03003 21.6681 6.03003H112.346C116.527 6.03003 119.944 9.43363 119.944 13.6278V120.386C119.944 124.566 116.54 127.983 112.346 127.983L112.333 127.97ZM21.6681 10.05C19.6983 10.05 18.0903 11.658 18.0903 13.6278V120.386C18.0903 122.355 19.6983 123.963 21.6681 123.963H112.346C114.316 123.963 115.924 122.355 115.924 120.386V13.6278C115.924 11.658 114.316 10.05 112.346 10.05H21.6681Z" fill="#00C2D6"/>
<path d="M117.92 37.855H16.0803C14.9681 37.855 14.0703 36.9572 14.0703 35.845C14.0703 34.7328 14.9681 33.835 16.0803 33.835H117.92C119.033 33.835 119.93 34.7328 119.93 35.845C119.93 36.9572 119.033 37.855 117.92 37.855Z" fill="#00C2D6"/>
<path d="M67.0001 107.414C51.6973 107.414 39.2354 94.9658 39.2354 79.6496C39.2354 64.3334 51.6839 51.8848 67.0001 51.8848C82.3163 51.8848 94.7649 64.3334 94.7649 79.6496C94.7649 94.9658 82.3163 107.414 67.0001 107.414ZM67.0001 55.9048C53.9083 55.9048 43.2553 66.5578 43.2553 79.6496C43.2553 92.7414 53.9083 103.394 67.0001 103.394C80.0919 103.394 90.745 92.7414 90.745 79.6496C90.745 66.5578 80.0919 55.9048 67.0001 55.9048Z" fill="#00C2D6"/>
<path d="M67 115.99C46.9536 115.99 30.6592 99.6826 30.6592 79.6496C30.6592 59.6166 46.967 43.3088 67 43.3088C87.033 43.3088 103.341 59.6166 103.341 79.6496C103.341 99.6826 87.033 115.99 67 115.99ZM67 47.3154C49.178 47.3154 34.6792 61.8142 34.6792 79.6362C34.6792 97.4582 49.178 111.957 67 111.957C84.822 111.957 99.3208 97.4582 99.3208 79.6362C99.3208 61.8142 84.822 47.3154 67 47.3154Z" fill="#00C2D6"/>
<path d="M53.6406 29.48H24.0802C22.6196 29.48 21.4404 28.3008 21.4404 26.8402V17.6344C21.4404 16.1738 22.6196 14.9946 24.0802 14.9946H53.6406C55.1012 14.9946 56.2804 16.1738 56.2804 17.6344V26.8402C56.2804 28.3008 55.1012 29.48 53.6406 29.48ZM53.6004 17.6344L24.0802 17.6746L24.1204 26.8402L53.6004 26.8V17.6344Z" fill="#00C2D6"/>
<path d="M97.3105 30.2572C92.8751 30.2572 89.2705 26.6526 89.2705 22.2172C89.2705 17.7818 92.8751 14.1772 97.3105 14.1772C101.746 14.1772 105.351 17.7818 105.351 22.2172C105.351 26.6526 101.746 30.2572 97.3105 30.2572ZM97.3105 16.8572C94.3491 16.8572 91.9505 19.2558 91.9505 22.2172C91.9505 25.1786 94.3491 27.5772 97.3105 27.5772C100.272 27.5772 102.671 25.1786 102.671 22.2172C102.671 19.2558 100.272 16.8572 97.3105 16.8572Z" fill="#00C2D6"/>
<path opacity="0.3" d="M66.9999 112.56C85.1314 112.56 99.8299 97.8615 99.8299 79.73C99.8299 61.5985 85.1314 46.9 66.9999 46.9C48.8684 46.9 34.1699 61.5985 34.1699 79.73C34.1699 97.8615 48.8684 112.56 66.9999 112.56Z" fill="#00C2D6"/>
<path d="M67 104.52C80.6911 104.52 91.79 93.4211 91.79 79.7299C91.79 66.0388 80.6911 54.9399 67 54.9399C53.3088 54.9399 42.21 66.0388 42.21 79.7299C42.21 93.4211 53.3088 104.52 67 104.52Z" fill="white"/>
<path d="M43.0404 86.765C42.7188 86.765 42.3972 86.6578 42.1426 86.4166C41.5932 85.9208 41.553 85.0766 42.0488 84.5272C42.3838 84.152 50.3702 75.442 61.4788 75.442C67.281 75.442 72.1184 77.7066 76.7816 79.8908C81.3912 82.0482 85.7328 84.085 90.9454 84.085C91.6824 84.085 92.2854 84.688 92.2854 85.425C92.2854 86.162 91.6824 86.765 90.9454 86.765C85.1298 86.765 80.3058 84.5004 75.6426 82.3162C71.0464 80.1588 66.6914 78.122 61.4788 78.122C51.5494 78.122 44.1124 86.2424 44.032 86.3228C43.764 86.6176 43.4022 86.765 43.0404 86.765Z" fill="#00C2D6"/>
</svg>
