<svg width="134" height="134" viewBox="0 0 134 134" fill="none" xmlns="http://www.w3.org/2000/svg">
<path d="M50.5584 9.15222H40.2806C39.4666 9.15222 38.8066 9.81215 38.8066 10.6262V50.451C38.8066 51.2651 39.4666 51.925 40.2806 51.925H50.5584C51.3725 51.925 52.0324 51.2651 52.0324 50.451V10.6262C52.0324 9.81215 51.3725 9.15222 50.5584 9.15222Z" fill="white"/>
<path d="M49.3524 11.8322V49.245H41.4866V11.8322H49.3524ZM50.5584 9.15222H40.2806C39.4632 9.15222 38.8066 9.80882 38.8066 10.6262V50.4376C38.8066 51.255 39.4632 51.9116 40.2806 51.9116H50.5584C51.3758 51.9116 52.0324 51.255 52.0324 50.4376V10.6262C52.0324 9.80882 51.3758 9.15222 50.5584 9.15222Z" fill="#00C2D6"/>
<path d="M45.4128 47.972C53.6404 47.972 60.3136 54.6452 60.3136 62.8728V117.786C60.3136 118.603 59.657 119.26 58.8396 119.26H31.9994C31.182 119.26 30.5254 118.603 30.5254 117.786V62.8728C30.5254 54.6452 37.1986 47.972 45.4262 47.972H45.4128Z" fill="white"/>
<path d="M45.4128 50.652C52.153 50.652 57.6336 56.1326 57.6336 62.8728V116.58H33.2054V62.8728C33.2054 56.1326 38.686 50.652 45.4262 50.652M45.4262 47.972C37.1986 47.972 30.5254 54.6452 30.5254 62.8728V117.786C30.5254 118.603 31.182 119.26 31.9994 119.26H58.8396C59.657 119.26 60.3136 118.603 60.3136 117.786V62.8728C60.3136 54.6452 53.6404 47.972 45.4128 47.972H45.4262Z" fill="#00C2D6"/>
<path d="M90.9455 80.4268L68.6479 54.6854C67.2543 53.0774 68.3933 50.5582 70.5373 50.5582H115.132C117.263 50.5582 118.415 53.064 117.022 54.6854L94.7243 80.4268C93.7327 81.5792 91.9505 81.5792 90.9589 80.4268H90.9455Z" fill="white"/>
<path d="M114.718 53.2248L92.8355 78.4972L70.9533 53.2248H114.731M115.146 50.5448H70.5513C68.4207 50.5448 67.2683 53.0506 68.6619 54.672L90.9595 80.4134C91.4553 80.9896 92.1521 81.271 92.8489 81.271C93.5457 81.271 94.2425 80.9896 94.7383 80.4134L117.036 54.672C118.429 53.064 117.291 50.5448 115.146 50.5448Z" fill="#00C2D6"/>
<path d="M91.9512 109.639L79.2212 114.436C76.6216 115.414 77.3318 119.26 80.1056 119.26H105.566C108.339 119.26 109.036 115.414 106.45 114.436L93.72 109.639C93.1572 109.424 92.5274 109.424 91.9646 109.639H91.9512Z" fill="white"/>
<path d="M92.8353 112.171L104.534 116.58H81.1237L92.8219 112.171M92.8219 109.478C92.5271 109.478 92.2323 109.532 91.9375 109.639L79.2075 114.436C76.6079 115.414 77.3181 119.26 80.0919 119.26H105.552C108.326 119.26 109.023 115.414 106.436 114.436L93.7063 109.639C93.4249 109.532 93.1301 109.478 92.8219 109.478Z" fill="#00C2D6"/>
<path d="M94.1751 78.8188H91.4951V111.823H94.1751V78.8188Z" fill="#00C2D6"/>
<path d="M106.329 63.985H79.3281V66.665H106.329V63.985Z" fill="#00C2D6"/>
<path d="M123.388 121.27H5.25316C4.14096 121.27 3.24316 120.372 3.24316 119.26C3.24316 118.148 4.14096 117.25 5.25316 117.25H123.388C124.5 117.25 125.398 118.148 125.398 119.26C125.398 120.372 124.5 121.27 123.388 121.27Z" fill="#00C2D6"/>
<path d="M50.0619 26.1434H39.8779V28.8234H50.0619V26.1434Z" fill="#00C2D6"/>
<path opacity="0.3" d="M58.9599 57.62H32.2939V117.92H58.9599V57.62Z" fill="#00C2D6"/>
<path opacity="0.3" d="M81.6592 66.665L92.8348 79.8104L105.163 65.9146L81.6592 66.665Z" fill="#00C2D6"/>
</svg>
