<svg width="134" height="134" viewBox="0 0 134 134" fill="none" xmlns="http://www.w3.org/2000/svg">
<path opacity="0.3" d="M129.98 124.62H4.01953V83.7769C4.01953 83.7769 7.79833 79.0601 14.7395 79.0601C21.6807 79.0601 26.8799 88.4803 30.8195 88.4803C41.5395 88.4803 41.5395 79.0601 49.5795 79.0601C54.4839 79.0601 61.6395 88.4803 65.6595 88.4803C76.3795 88.4803 77.7195 79.0601 85.7595 79.0601C91.2803 79.0601 96.4929 88.4803 103.18 88.4803C109.866 88.4803 115.4 79.0601 119.26 79.0601C128.64 79.0601 129.98 83.7769 129.98 83.7769V124.62Z" fill="#00C2D6"/>
<path d="M19.8184 57.4458H41.5398" stroke="#00C2D6" stroke-width="2.5" stroke-miterlimit="10" stroke-linecap="round"/>
<path d="M19.8184 65.7672H41.5398" stroke="#00C2D6" stroke-width="2.5" stroke-miterlimit="10" stroke-linecap="round"/>
<path d="M19.8184 74.1021H41.5398" stroke="#00C2D6" stroke-width="2.5" stroke-miterlimit="10" stroke-linecap="round"/>
<path d="M9.17871 48.1462C18.3041 48.1462 19.8183 54.0422 19.8183 61.305V78.9126" stroke="#00C2D6" stroke-width="3" stroke-miterlimit="10" stroke-linecap="round"/>
<path d="M30.9004 46.9C40.0258 46.9 41.54 53.0372 41.54 60.6082V81.74" stroke="#00C2D6" stroke-width="3" stroke-miterlimit="10" stroke-linecap="round"/>
<path d="M5.94922 82.8656C10.8268 77.988 18.7328 78.0014 23.6238 82.8924C23.6238 82.8924 31.905 91.4282 40.6552 82.9192C40.6552 82.9192 48.8694 73.6598 58.6246 82.946C58.6246 82.946 66.9058 91.4818 75.656 82.9728C75.656 82.9728 83.8702 73.7134 93.6254 82.9996C93.6254 82.9996 101.907 91.5354 110.657 83.0264C110.657 83.0264 118.871 73.767 128.626 83.0532" stroke="#00C2D6" stroke-width="3" stroke-miterlimit="10" stroke-linecap="round"/>
<path d="M5.94922 95.14C10.8268 90.2624 18.7328 90.2624 23.6238 95.14C23.6238 95.14 31.8916 103.662 40.6552 95.14C40.6552 95.14 48.8828 85.8672 58.6246 95.14C58.6246 95.14 66.8924 103.662 75.656 95.14C75.656 95.14 83.8836 85.8672 93.6254 95.14C93.6254 95.14 101.893 103.662 110.657 95.14C110.657 95.14 118.884 85.8672 128.626 95.14" stroke="#00C2D6" stroke-width="3" stroke-miterlimit="10" stroke-linecap="round"/>
<path d="M5.94922 109.88C10.8268 105.002 18.7328 105.002 23.6238 109.88C23.6238 109.88 31.8916 118.402 40.6552 109.88C40.6552 109.88 48.8828 100.607 58.6246 109.88C58.6246 109.88 66.8924 118.402 75.656 109.88C75.656 109.88 83.8836 100.607 93.6254 109.88C93.6254 109.88 101.893 118.402 110.657 109.88C110.657 109.88 118.884 100.607 128.626 109.88" stroke="#00C2D6" stroke-width="3" stroke-miterlimit="10" stroke-linecap="round"/>
</svg>
