<svg width="128" height="128" viewBox="0 0 128 128" fill="none" xmlns="http://www.w3.org/2000/svg">
<circle cx="64" cy="64" r="64" fill="#E0E0E0"/>
<rect width="71.4419" height="71.4419" transform="translate(29.7656 26.7905)" fill="#E0E0E0"/>
<path d="M35.7189 86.6599C35.7189 75.421 45.1084 66.3102 64.2957 66.3102C83.4829 66.3102 92.8724 75.421 92.8724 86.6599C92.8724 88.4479 91.5679 89.8973 89.9587 89.8973H38.6326C37.0234 89.8973 35.7189 88.4479 35.7189 86.6599Z" fill="#FAFAFA"/>
<path d="M75.012 43.4601C75.012 49.3786 70.2141 54.1764 64.2957 54.1764C58.3772 54.1764 53.5794 49.3786 53.5794 43.4601C53.5794 37.5417 58.3772 32.7438 64.2957 32.7438C70.2141 32.7438 75.012 37.5417 75.012 43.4601Z" fill="#FAFAFA"/>
<path fill-rule="evenodd" clip-rule="evenodd" d="M64.2957 35.7206C60.0212 35.7206 56.5561 39.1857 56.5561 43.4601C56.5561 47.7345 60.0212 51.1996 64.2957 51.1996C68.5701 51.1996 72.0352 47.7345 72.0352 43.4601C72.0352 39.1857 68.5701 35.7206 64.2957 35.7206ZM50.6027 43.4601C50.6027 35.8977 56.7332 29.7671 64.2957 29.7671C71.8581 29.7671 77.9887 35.8977 77.9887 43.4601C77.9887 51.0226 71.8581 57.1531 64.2957 57.1531C56.7332 57.1531 50.6027 51.0226 50.6027 43.4601ZM40.9872 69.9187C46.4079 65.7124 54.2651 63.3334 64.2957 63.3334C74.3262 63.3334 82.1834 65.7124 87.6042 69.9187C93.0909 74.1762 95.8492 80.1389 95.8492 86.6599C95.8492 89.7891 93.4992 92.8741 89.9587 92.8741H38.6326C35.0922 92.8741 32.7422 89.7891 32.7422 86.6599C32.7422 80.1389 35.5005 74.1762 40.9872 69.9187ZM44.637 74.6222C40.6321 77.7299 38.6957 81.942 38.6957 86.6599C38.6957 86.7861 38.7295 86.872 38.7584 86.9206H89.833C89.8618 86.872 89.8957 86.7861 89.8957 86.6599C89.8957 81.942 87.9592 77.7299 83.9544 74.6222C79.8835 71.4634 73.4523 69.2869 64.2957 69.2869C55.139 69.2869 48.7078 71.4634 44.637 74.6222Z" fill="#FAFAFA"/>
</svg>
